HIERARCHY
ROOT Hips
{
  OFFSET 43.0842 91.1655 101.099
  CHANNELS 6 Xposition Yposition Zposition Zrotation Xrotation Yrotation
  JOINT LeftUpLeg
  {
    OFFSET 8.64259 1.95398 -2.38835
    CHANNELS 3 Zrotation Xrotation Yrotation
    JOINT LeftLeg
    {
      OFFSET 43.7702 0 0
      CHANNELS 3 Zrotation Xrotation Yrotation
      JOINT LeftFoot
      {
        OFFSET 40.6238 0 0
        CHANNELS 3 Zrotation Xrotation Yrotation
        JOINT LeftToeBase
        {
          OFFSET 12.7242 0 0
          CHANNELS 3 Zrotation Xrotation Yrotation
          End Site
          {
            OFFSET 0 0 0
          }
        }
      }
    }
  }
  JOINT RightUpLeg
  {
    OFFSET -8.2249 1.95398 -2.59336
    CHANNELS 3 Zrotation Xrotation Yrotation
    JOINT RightLeg
    {
      OFFSET 43.5653 0 0
      CHANNELS 3 Zrotation Xrotation Yrotation
      JOINT RightFoot
      {
        OFFSET 40.6238 0 0
        CHANNELS 3 Zrotation Xrotation Yrotation
        JOINT RightToeBase
        {
          OFFSET 12.7242 0 0
          CHANNELS 3 Zrotation Xrotation Yrotation
          End Site
          {
            OFFSET 0 0 0
          }
        }
      }
    }
  }
  JOINT Spine
  {
    OFFSET 0.165834 0.87714 6.61349
    CHANNELS 3 Zrotation Xrotation Yrotation
    JOINT Spine1
    {
      OFFSET 7.38963 1.71661e-005 0
      CHANNELS 3 Zrotation Xrotation Yrotation
      JOINT Spine2
      {
        OFFSET 11.9445 1.14441e-005 0
        CHANNELS 3 Zrotation Xrotation Yrotation
        JOINT Spine3
        {
          OFFSET 14.7254 4.19617e-005 0
          CHANNELS 3 Zrotation Xrotation Yrotation
          JOINT Spine4
          {
            OFFSET 10.9679 0 0
            CHANNELS 3 Zrotation Xrotation Yrotation
            JOINT RightShoulder
            {
              OFFSET 2.46616 -1.6653 3.69651
              CHANNELS 3 Zrotation Xrotation Yrotation
              JOINT RightArm
              {
                OFFSET 13.0012 0 0
                CHANNELS 3 Zrotation Xrotation Yrotation
                JOINT RightForeArm
                {
                  OFFSET 28.7848 1.52588e-005 0
                  CHANNELS 3 Zrotation Xrotation Yrotation
                  JOINT RightHand
                  {
                    OFFSET 26.5688 1.52588e-005 0
                    CHANNELS 3 Zrotation Xrotation Yrotation
                    End Site
                    {
                      OFFSET 0 0 0
                    }
                  }
                }
              }
            }
            JOINT LeftShoulder
            {
              OFFSET 2.38034 -1.29275 -3.7523
              CHANNELS 3 Zrotation Xrotation Yrotation
              JOINT LeftArm
              {
                OFFSET 16.3182 6.10351e-005 0
                CHANNELS 3 Zrotation Xrotation Yrotation
                JOINT LeftForeArm
                {
                  OFFSET 27.0901 0 0
                  CHANNELS 3 Zrotation Xrotation Yrotation
                  JOINT LeftHand
                  {
                    OFFSET 24.5451 1.52588e-005 0
                    CHANNELS 3 Zrotation Xrotation Yrotation
                    End Site
                    {
                      OFFSET 0 0 0
                    }
                  }
                }
              }
            }
            JOINT Neck
            {
              OFFSET 5.0226 -0.0266342 0
              CHANNELS 3 Zrotation Xrotation Yrotation
              JOINT Head
              {
                OFFSET 6.69364 2.86102e-005 0
                CHANNELS 3 Zrotation Xrotation Yrotation
                End Site
                {
                  OFFSET 0 0 0
                }
              }
            }
          }
        }
      }
    }
  }
}
MOTION
Frames:	15
Frame Time:	0.0333333
97.7698 87.3655 58.5426 86.5791 2.40563 81.1334 -170.886 25.9374 96.6966 -35.4957 13.7638 -4.67881 61.3275 0.961544 2.38413 35.761 3.68799 10.038 173.791 34.7954 65.9087 -38.8857 -5.12579 -2.49701 62.3866 -1.65881 0.951411 38.4933 -6.03975 2.84171 0.641133 8.05597 -91.0347 10.7706 0.799311 -2.13232 -0.901928 0.704708 -2.16542 -23.429 1.40313 -1.79367 -3.41633 1.40314 -1.79367 97.0102 -28.4036 -92.8487 11.7324 15.0924 -38.3783 -15.3857 6.93658 -56.5618 3.25419 2.43184 2.54915 -97.7672 -54.2878 68.6353 -10.3118 -7.34208 -51.5516 -9.08659 15.4754 -111.357 18.2617 2.13682 0.732368 -26.4029 -1.92154 7.09803 3.30238 -1.688 -5.81127 
98.9324 87.4097 61.0991 86.3156 2.64024 83.7087 -171.01 24.9934 100.213 -36.274 13.6021 -3.54209 62.0913 1.68397 1.47378 35.6838 3.79703 9.61803 173.491 34.4683 69.4635 -42.2416 -5.07492 -2.19383 63.116 -2.74546 1.98143 40.4114 -6.75224 1.79045 -0.0253061 8.20018 -91.0855 10.4605 -0.548086 -2.1054 -1.21199 -0.640203 -2.07926 -23.7329 0.109815 -2.17276 -3.72024 0.109815 -2.17277 96.1393 -35.9419 -93.309 25.5943 29.7531 -43.4433 -11.5757 -0.519194 -90.9408 -1.31833 1.39782 4.95235 -97.5595 -54.1677 68.8907 -13.4488 -11.5985 -52.5204 -6.62497 18.4359 -112.403 19.8675 2.3422 1.61359 -27.9194 -1.54533 6.65066 3.08496 -1.35733 -7.64005 
99.9753 87.4536 63.354 86.9758 1.80856 83.9988 -169.621 22.0171 101.577 -34.5644 14.3026 -3.75926 62.3452 2.40186 2.40107 35.6369 2.85165 11.1077 172.615 33.9057 71.5255 -43.738 -3.50032 -1.69671 65.4052 -4.45912 1.55046 40.7269 -7.09202 2.59816 -0.457912 8.32766 -90.6477 10.2157 -1.20818 -1.18592 -1.45507 -1.25922 -1.13161 -23.9889 -0.795915 -1.49416 -3.97627 -0.795943 -1.49417 94.9086 -43.159 -94.3128 30.0899 34.3924 -41.8201 -13.0482 -16.2636 -109.184 -4.86522 0.56092 7.95722 -94.7384 -52.1465 72.3035 -14.7998 -9.90652 -54.4275 -3.27217 15.8068 -113.226 19.1411 2.2366 1.28363 -29.3745 -0.535259 4.59645 2.18009 -0.454135 -7.71507 
100.743 87.4896 64.8911 87.3198 -0.502756 84.6679 -168.835 19.7919 103.274 -32.6834 13.229 -3.95695 62.3073 1.76314 3.70943 35.2167 2.67191 10.3356 171.602 33.038 74.0336 -43.1992 -4.24233 -0.666871 67.3661 -6.28899 -1.38389 39.5264 -6.60733 3.1143 -0.521644 8.31945 -90.3807 10.2298 -1.21317 -0.651968 -1.44073 -1.24069 -0.597938 -23.9775 -0.961135 -0.986437 -3.96488 -0.961168 -0.986447 94.5066 -46.4656 -94.4341 30.2095 36.1412 -38.2908 -11.6181 -10.2866 -126.971 -7.2041 0.00277827 11.385 -93.202 -50.4352 74.0775 -17.6949 -10.4378 -54.7609 -1.24859 16.4341 -114.199 18.0406 2.0704 1.30153 -31.7181 0.0548959 3.56594 2.27456 0.129944 -7.39936 
101.544 87.6335 65.7722 87.4646 -2.23942 86.165 -169.053 17.9013 104.828 -31.102 13.3438 -3.03877 62.1776 1.528 5.15938 34.8176 2.1331 10.2405 172.072 32.0545 76.3325 -43.1448 -3.67026 -0.745099 67.7708 -6.73894 -0.808175 39.1882 -6.41717 3.01604 -0.539189 8.29019 -90.3561 10.2901 -1.23701 -0.600639 -1.38033 -1.26226 -0.545612 -23.9177 -0.999315 -0.944655 -3.90506 -0.999319 -0.944658 95.1677 -45.5889 -93.4937 32.0036 36.937 -39.3984 -11.5019 -8.14677 -136.582 -7.25327 0.162912 13.5952 -92.9442 -50.4197 74.4541 -19.3872 -12.0969 -55.7921 1.64253 17.0242 -114.498 18.6182 2.14893 1.76511 -33.4302 0.404597 3.71404 2.55195 0.543638 -7.32621 
102.207 87.6653 66.1729 87.2747 -3.53766 86.9686 -169.872 16.7102 105.558 -30.4168 13.6459 -1.84736 61.6218 0.726255 6.53374 35.2898 2.75753 10.3816 172.602 31.8042 77.6459 -43.4244 -3.70712 -0.830272 67.8298 -6.77368 -0.526943 39.715 -6.61162 2.72073 -0.557219 8.19312 -90.3096 10.4849 -1.25189 -0.503988 -1.18553 -1.27289 -0.448403 -23.7235 -1.04256 -0.856961 -3.71085 -1.04256 -0.856969 95.9405 -43.8335 -92.4734 35.9999 39.4034 -45.2136 -11.1565 -8.79255 -140.624 -7.81664 -0.0531147 13.7637 -93.3506 -50.9027 73.9831 -18.8366 -11.9846 -56.8227 4.4368 15.2625 -114.204 18.4286 2.07323 3.07207 -34.6458 0.703785 3.10739 2.29567 0.842981 -6.7376 
102.756 87.7735 66.2686 87.6122 -4.99266 87.4003 -170.027 15.0748 105.894 -29.7458 13.8537 -1.42076 61.4779 0.201631 7.72979 35.2298 2.33329 10.9421 172.84 30.2846 78.5402 -41.5413 -3.96745 -0.836672 68.1066 -7.05144 -2.12968 39.6775 -6.82919 3.76031 -0.561225 8.12887 -90.2106 10.615 -1.21452 -0.308573 -1.05543 -1.22692 -0.254823 -23.594 -1.06564 -0.659362 -3.58136 -1.06563 -0.659361 96.2007 -42.0675 -92.2821 36.9024 39.3059 -49.0211 -11.6427 -7.04512 -141.202 -7.93405 -0.136379 13.3025 -93.0254 -50.5547 74.3707 -19.2212 -11.976 -56.1532 4.37666 15.3694 -114.323 18.3295 2.06383 2.85029 -35.9904 1.04766 2.57838 2.48451 1.13375 -6.61848 
103.184 88.0082 66.2682 87.7634 -6.07005 87.5647 -169.787 13.708 105.976 -28.5809 12.9296 -1.48747 61.3806 -0.197536 7.81715 34.9797 1.78272 11.2199 173.648 29.1301 79.0435 -40.1276 -3.17412 -1.39309 68.0318 -7.13078 -1.91903 39.5085 -6.90261 4.46843 -0.526802 8.02008 -90.0827 10.834 -1.08715 -0.063675 -0.836477 -1.08887 -0.0157676 -23.3749 -1.01773 -0.387491 -3.36227 -1.01772 -0.38749 96.3343 -40.8789 -92.2173 36.6531 38.6019 -50.5372 -11.9178 -5.09341 -141.277 -6.38109 0.611435 14.9324 -92.4407 -49.9784 75.0862 -18.6604 -10.3595 -55.3795 4.30128 14.3659 -114.454 18.1902 2.04506 2.71645 -36.9163 1.39004 1.28978 2.37882 1.2954 -6.13957 
103.504 88.2647 66.0489 87.8845 -6.66774 87.9372 -169.679 12.8694 106.204 -27.882 12.1219 -1.52123 61.4365 -0.615713 7.71274 34.899 1.83438 10.9345 174.13 28.2024 79.3609 -39.1984 -3.3686 -1.75405 67.6413 -7.10963 -1.19634 39.1599 -6.59152 3.84207 -0.462397 7.97568 -90.0513 10.9227 -0.944292 -0.0126534 -0.747922 -0.943886 0.0289141 -23.2856 -0.896799 -0.295876 -3.27298 -0.896798 -0.295882 96.4723 -39.3808 -92.1907 39.2398 39.562 -52.6472 -11.966 -7.51151 -141.853 -6.53751 0.612369 15.6932 -92.5043 -50.0418 75.0081 -17.6687 -8.9604 -55.1654 4.41227 13.2772 -114.451 17.3498 1.89619 2.90506 -36.6833 1.47692 0.622606 1.97765 1.27701 -6.17569 
103.771 88.5111 65.5595 88.1697 -6.26653 88.2817 -169.772 12.4457 106.227 -27.6559 12.4711 -1.45402 61.6224 -0.710514 8.01735 34.8331 1.91115 10.6455 173.53 26.6142 79.2712 -37.0702 -3.2327 -1.47603 67.6443 -7.37387 -1.17819 38.6037 -6.36401 4.025 -0.445279 7.97508 -90.0741 10.9238 -0.92075 -0.0604026 -0.746845 -0.92251 -0.0198266 -23.2844 -0.860024 -0.33435 -3.27171 -0.860012 -0.334357 96.5073 -38.5204 -92.2513 36.5515 37.9402 -49.6332 -13.0989 -4.249 -141.565 -6.72044 0.475554 14.9505 -92.7545 -50.2195 74.6829 -17.1771 -8.03638 -55.3154 4.42072 13.2614 -114.153 17.2087 1.87131 2.93008 -36.4169 1.34002 0.0580337 1.86541 1.02529 -6.30014 
103.905 88.6129 65.0117 88.3168 -5.25437 88.4129 -169.982 12.7814 106.128 -28.2868 13.7635 -1.3045 61.7394 -0.563156 7.67523 35.3961 2.75849 10.6473 172.896 25.3452 78.8264 -35.2972 -3.28848 -1.24762 67.3761 -7.26014 -1.61257 38.9356 -6.62495 4.45905 -0.46498 7.92712 -90.066 11.0198 -0.95617 -0.0396343 -0.650806 -0.957019 0.00248111 -23.1885 -0.90006 -0.325198 -3.1759 -0.900053 -0.325199 96.3723 -39.1444 -92.4013 33.6469 36.971 -46.607 -13.2533 -2.30184 -141.022 -6.93858 0.388231 14.9892 -92.8956 -50.2949 74.4936 -16.3234 -6.64205 -55.5703 4.62587 12.8282 -113.625 17.6721 1.96247 2.60063 -36.5837 1.15008 -1.49934 1.93897 0.573678 -5.57281 
103.884 88.689 64.3588 88.6873 -3.78217 88.5801 -170.044 13.5422 106.34 -29.7663 15.4569 -0.918109 62.0837 0.567381 5.82479 35.9556 3.7529 10.3829 172.55 24.3231 78.2161 -34.6213 -3.69722 -1.31844 66.8661 -6.71466 -1.32601 39.0004 -6.52001 3.87025 -0.526906 7.92612 -90.0524 11.022 -1.07317 -0.00130744 -0.648522 -1.07217 0.0459171 -23.187 -1.02314 -0.323815 -3.17434 -1.02314 -0.323813 96.2762 -39.8498 -92.4692 33.4557 37.6018 -45.3474 -13.6618 -2.01167 -140.762 -6.95335 0.364956 14.7684 -92.4738 -49.8786 75.0121 -15.9272 -5.42544 -56.1895 4.93131 12.5577 -113.405 18.2426 2.06655 2.3622 -36.1657 1.05328 -2.96675 1.64126 0.235157 -5.3633 
103.848 88.9265 63.3986 89.2153 -2.13482 88.6111 -170.318 13.9145 106.361 -30.9394 16.2035 -0.208141 63.0055 2.47239 2.46635 36.3063 4.75026 9.5178 172.139 23.2367 77.1992 -33.9131 -4.22818 -1.48164 65.829 -5.73309 -0.539281 38.9177 -6.27432 2.97991 -0.578566 7.93651 -90.0057 11.0019 -1.15439 0.0988985 -0.668514 -1.14891 0.149608 -23.2077 -1.13072 -0.252658 -3.19505 -1.13074 -0.25267 96.0235 -40.6734 -92.7894 34.1461 40.5541 -44.7071 -13.7412 -3.27414 -140.952 -7.02519 0.300874 14.3221 -91.9712 -49.2275 75.5972 -16.4742 -5.25252 -57.3842 4.49967 13.8305 -112.61 18.7935 2.16257 2.15255 -35.7446 0.850694 -3.78872 0.927688 -0.124567 -6.26282 
103.834 89.0245 61.9341 89.4994 -1.39225 88.7897 -170.808 13.713 106.386 -31.8117 17.559 0.574628 63.7944 3.7718 1.37749 36.842 5.43724 9.68993 171.958 22.262 76.2032 -32.4616 -4.89923 -1.68856 64.691 -4.86285 0.231017 38.8592 -5.98855 1.89366 -0.518986 7.90446 -89.9996 11.0658 -1.03282 0.100415 -0.604757 -1.02739 0.145774 -23.1431 -1.01525 -0.214663 -3.13046 -1.01524 -0.214667 95.764 -40.8951 -93.2081 34.9752 43.3718 -44.4819 -13.3135 -4.51615 -141.245 -7.23909 0.230328 14.5468 -91.681 -48.7725 75.9204 -17.1886 -5.49351 -58.968 3.64658 15.3687 -111.441 19.2471 2.23483 2.2539 -35.5483 0.394735 -4.00543 0.443989 -0.643185 -7.20316 
103.732 89.0225 59.8694 89.5684 -1.3316 89.1271 -171.352 13.0973 106.343 -32.4789 19.6351 1.32776 63.4302 3.84691 2.55624 37.2284 5.86686 9.92877 172.045 21.7219 75.2766 -30.9002 -5.2862 -1.91293 63.4239 -3.7267 1.53927 38.0249 -5.23341 0.573862 -0.406576 7.81856 -90.0466 11.2369 -0.830773 -0.0106254 -0.433809 -0.830434 0.0259457 -22.9709 -0.789175 -0.259831 -2.95829 -0.789162 -0.259831 96.0786 -41.621 -92.5574 34.4986 43.3567 -44.199 -13.4782 -3.65423 -141.51 -7.11152 0.323517 15.0708 -91.2734 -48.1014 76.3726 -18.2971 -5.28346 -59.9148 3.0638 16.4942 -110.643 19.256 2.23193 2.3792 -35.7447 -0.0193314 -4.80265 0.0525281 -1.20223 -7.18679 
